<svg xmlns="http://www.w3.org/2000/svg" xmlns:xlink="http://www.w3.org/1999/xlink" version="1.1" x="0px" y="0px" viewBox="0 0 100 100" enable-background="new 0 0 100 100" xml:space="preserve"><path d="M81.6,34.2c-1.4-1.3-1.9-3.3-1.2-5.1l0.7-1.6c1.1-2.5-0.3-5.3-2.9-6.1L76.6,21c-1.9-0.5-3.2-2.2-3.3-4.1l-0.1-1.8  c-0.1-2.7-2.6-4.7-5.2-4.2l-1.7,0.3c-1.9,0.3-3.8-0.6-4.7-2.3l-0.8-1.6c-1.3-2.4-4.4-3.1-6.6-1.5l-1.4,1C51.1,8,49,8,47.5,6.8  l-1.4-1c-2.2-1.6-5.3-0.9-6.6,1.5l-0.8,1.5c-0.9,1.7-2.8,2.6-4.7,2.3l-1.7-0.3c-2.7-0.5-5.1,1.5-5.3,4.2l-0.1,1.8  c-0.1,1.9-1.4,3.6-3.3,4.1l-1.7,0.5c-2.6,0.7-4,3.6-2.9,6.1l0.7,1.6c0.7,1.8,0.3,3.8-1.2,5.1l-1.3,1.2c-2,1.8-2,4.9,0,6.7l1.3,1.2  c1.4,1.3,1.9,3.3,1.2,5.1l-0.7,1.6c-1.1,2.5,0.3,5.3,2.9,6.1l1.7,0.5c1.9,0.5,3.2,2.2,3.3,4.1l0.1,1.8c0.1,2.7,2.6,4.7,5.2,4.2  l1.7-0.3c1.9-0.3,3.8,0.6,4.7,2.3l0.8,1.6c1.3,2.4,4.4,3.1,6.6,1.5l1.4-1c1.6-1.1,3.7-1.1,5.2,0l1.4,1c2.2,1.6,5.3,0.9,6.6-1.5  l0.8-1.5c0.9-1.7,2.8-2.6,4.7-2.3l1.7,0.3c2.7,0.5,5.1-1.5,5.3-4.2l0.1-1.8c0.1-1.9,1.4-3.6,3.3-4.1l1.7-0.5c2.6-0.7,4-3.6,2.9-6.1  l-0.7-1.6c-0.7-1.8-0.3-3.8,1.2-5.1l1.3-1.2c2-1.8,2-4.9,0-6.7L81.6,34.2z M50,59.1c-11.3,0-20.5-9.2-20.5-20.5  c0-11.3,9.2-20.5,20.5-20.5c11.3,0,20.5,9.2,20.5,20.5C70.5,50,61.3,59.1,50,59.1z M34.6,84.7l-4.2,3.5l1.3,5.3  c0.2,1-0.8,1.8-1.7,1.3L25.3,92l-4.7,2.9c-0.9,0.5-2-0.3-1.7-1.3l1.3-5.3l-4.2-3.5c-0.8-0.7-0.4-2,0.7-2l5.5-0.4l2.1-5.1  c0.4-1,1.7-1,2.1,0l2.1,5.1l5.5,0.4C35,82.8,35.4,84.1,34.6,84.7z M59.3,84.7l-4.2,3.5l1.3,5.3c0.2,1-0.8,1.8-1.7,1.3L50,92  l-4.7,2.9c-0.9,0.5-2-0.3-1.7-1.3l1.3-5.3l-4.2-3.5c-0.8-0.7-0.4-2,0.7-2l5.5-0.4l2.1-5.1c0.4-1,1.7-1,2.1,0l2.1,5.1l5.5,0.4  C59.6,82.8,60.1,84.1,59.3,84.7z M83.9,84.7l-4.2,3.5l1.3,5.3c0.2,1-0.8,1.8-1.7,1.3L74.7,92L70,94.9c-0.9,0.5-2-0.3-1.7-1.3  l1.3-5.3l-4.2-3.5c-0.8-0.7-0.4-2,0.7-2l5.5-0.4l2.1-5.1c0.4-1,1.7-1,2.1,0l2.1,5.1l5.5,0.4C84.3,82.8,84.7,84.1,83.9,84.7z   M58.1,28.1l4.9,5L51.6,44.3l-5,4.9l-4.9-5L37,39.5l5-4.9l4.7,4.8L58.1,28.1z"></path></svg>