<svg xmlns="http://www.w3.org/2000/svg" xmlns:xlink="http://www.w3.org/1999/xlink" version="1.1" x="0px" y="0px" viewBox="0 0 100 100" style="enable-background:new 0 0 100 100;" xml:space="preserve"><g><circle cx="32.1" cy="29.2" r="9.6"></circle><polygon points="37.6,80.4 37.6,80.4 37.6,80.4  "></polygon><polygon points="26.6,80.4 26.6,80.4 26.6,80.4  "></polygon><circle cx="67.9" cy="29.2" r="9.6"></circle><polygon points="73.4,80.4 73.4,80.4 73.4,80.4  "></polygon><path d="M88.8,51.4L80,42.7c-1.6-1.6-3.8-2.5-6.1-2.5l-12.1,0c-2.3,0-4.5,0.9-6.1,2.5L50,48.5l-5.7-5.7c-1.6-1.6-3.8-2.5-6.1-2.5   l-12.1,0c-2.3,0-4.5,0.9-6.1,2.5l-8.7,8.7c-1.6,1.6-1.6,4.3,0,5.9h0c1.6,1.7,4.2,1.6,5.9,0l5.3-5.3v24.2c0,2.3,1.8,4.2,4.1,4.2   c2.3,0,4.1-1.9,4.1-4.2v-9.2c0-0.7,0.6-1.3,1.3-1.3c0.7,0,1.3,0.6,1.3,1.3v9.2c0,2.3,1.9,4.2,4.2,4.2c2.3,0,4.2-1.9,4.2-4.2V52   l5.3,5.3c0.8,0.9,1.9,1.3,3,1.3c1.1,0,2.2-0.4,3-1.3l5.3-5.3l-5.1,18.3h5.1v6c0,2.3,1.8,4.2,4.1,4.2c2.3,0,4.1-1.9,4.1-4.2v-6h2.7   v6c0,2.3,1.8,4.2,4.1,4.2c2.3,0,4.1-1.9,4.1-4.2v-6h5.2L77.5,52l5.3,5.3c1.6,1.6,4.3,1.7,5.9,0h0C90.4,55.7,90.4,53.1,88.8,51.4z"></path><polygon points="62.4,80.4 62.4,80.4 62.4,80.4  "></polygon></g></svg>