<svg xmlns="http://www.w3.org/2000/svg" xmlns:xlink="http://www.w3.org/1999/xlink" version="1.1" x="0px" y="0px" viewBox="0 0 350 350" enable-background="new 0 0 350 350" xml:space="preserve"><path d="M179.297,112.158c-16.188,0-29.358,13.17-29.358,29.358s13.17,29.358,29.358,29.358s29.358-13.17,29.358-29.358  S195.485,112.158,179.297,112.158z"></path><g><path d="M212.213,191.216c-8.005-6.269-19.387-9.582-32.916-9.582s-24.911,3.313-32.915,9.582   c-8.707,6.819-13.122,16.84-13.122,29.784c0,3.679,15.383,10.25,46.037,10.25s46.038-6.571,46.038-10.25   C225.335,208.056,220.92,198.035,212.213,191.216z"></path></g><path d="M144.532,188.854c0.718-0.562,1.469-1.094,2.236-1.611c-2.188-4.725-5.37-8.75-9.555-12.027  c-8.005-6.269-19.387-9.582-32.916-9.582s-24.911,3.313-32.915,9.582C62.675,182.035,58.26,192.056,58.26,205  c0,3.679,15.383,10.25,46.037,10.25c10.702,0,19.536-0.802,26.511-2.001C132.307,203.016,136.901,194.83,144.532,188.854z"></path><path d="M287.213,175.216c-8.005-6.269-19.387-9.582-32.916-9.582s-24.911,3.313-32.915,9.582  c-4.185,3.277-7.358,7.307-9.545,12.034c0.763,0.515,1.511,1.045,2.226,1.604c7.631,5.976,12.225,14.162,13.724,24.394  c6.974,1.199,15.808,2.001,26.51,2.001c30.654,0,46.038-6.571,46.038-10.25C300.335,192.056,295.92,182.035,287.213,175.216z"></path><path d="M104.297,96.158c-16.188,0-29.358,13.17-29.358,29.358s13.17,29.358,29.358,29.358s29.358-13.17,29.358-29.358  S120.485,96.158,104.297,96.158z"></path><path d="M254.297,96.158c-16.188,0-29.358,13.17-29.358,29.358s13.17,29.358,29.358,29.358s29.358-13.17,29.358-29.358  S270.485,96.158,254.297,96.158z"></path></svg>