<svg xmlns="http://www.w3.org/2000/svg" xmlns:xlink="http://www.w3.org/1999/xlink" viewBox="0 0 81 71" version="1.1" x="0px" y="0px"><title>Church Filled</title><desc>Created with Sketch.</desc><g stroke="none" stroke-width="1" fill="none" fill-rule="evenodd"><g transform="translate(-346.000000, -1004.000000)" stroke="#000000"><g transform="translate(348.000000, 1006.000000)"><g transform="translate(0.000000, 35.530859)"><polyline stroke-width="2.5" fill="#000000" points="25.1388375 0.211988032 3.08402467 0.21198933 3.08402467 0.21198933 0.388914582 13.5844309 25.221269 13.5844324"></polyline><polyline stroke-width="2.5" points="2.08883529 13.8144296 2.08883529 31.6211577 25.1580155 31.6211577"></polyline><polygon points="6.69194101 18.1917846 6.69194101 27.1917846 11.2699532 27.1917846 11.2699532 18.1917846"></polygon><polygon points="15.8799805 18.1917846 15.8799805 27.1917846 20.4579927 27.1917846 20.4579927 18.1917846"></polygon><polygon fill="#000000" points="2.67368279 14.0964859 2.67368279 31.7192349 25.0530402 31.7192349 20.4501763 27.2499118 6.19677549 27.2499118 6.19677549 17.697687 20.884441 17.697687 24.2520745 14.3300535"></polygon><polygon fill="#000000" points="11.8933763 17.8826736 11.8933763 27.7943465 15.4841597 27.7943465 15.4841597 18.3499295 20.7515974 18.3499295 20.7515974 27.8969988 24.1594186 31.0850166 24.1594186 15.2222004 11.7925595 15.2222004"></polygon></g><g transform="translate(64.000000, 51.530859) scale(-1, 1) translate(-64.000000, -51.530859) translate(51.000000, 35.530859)"><polyline stroke-width="2.5" fill="#000000" points="24.9646079 0.211988042 3.08402467 0.21198933 3.08402467 0.21198933 0.388914582 13.5844309 25.057806 13.5844323"></polyline><polyline stroke-width="2.5" points="2.08883529 13.8144296 2.08883529 31.6211577 25.005319 31.6211577"></polyline><polygon points="6.69194101 18.1917846 6.69194101 27.1917846 11.2699532 27.1917846 11.2699532 18.1917846"></polygon><polygon points="15.8799805 18.1917846 15.8799805 27.1917846 20.4579927 27.1917846 20.4579927 18.1917846"></polygon><polygon fill="#000000" points="24.5578625 13.97137 24.5578625 31.5648879 2.07131269 31.5648879 5.99616387 27.9795568 21.1130353 27.9795568 21.1130353 17.485269 5.53346785 17.485269 2.93930701 14.5121382"></polygon><polygon fill="#000000" points="15.0155009 16.9366202 15.0155009 28.2280274 12.2347469 28.2280274 12.2347469 17.2689482 5.9145861 17.2689482 5.9145861 28.0438352 3.21415191 30.7442694 3.21415191 15.5463837 15.2863042 15.5463837"></polygon></g><polyline stroke-width="2.5" points="19.0858078 27.4501221 38.4858078 12.3245482 38.4858078 12.3245482 57.8858078 27.4501221"></polyline><rect stroke-width="2.5" x="30.6443753" y="23.9360584" width="16.2122894" height="16.2122894" rx="8.10614468"></rect><polyline stroke-width="2.5" stroke-linecap="round" points="38.7505199 27.7482276 38.7505199 32.5915651 42.9414512 32.5915651"></polyline><polyline stroke-width="2.5" fill="#000000" points="38.4858078 12.3245482 38.4858078 0.381642928 49.2793812 2.46694783 49.2793812 4.04230134 38.7649566 6.110809"></polyline><path d="M33.8959744,66.0780486 L33.8959744,54.6994429 C33.8959744,52.0183515 36.0694285,49.8448974 38.7505199,49.8448974 C41.4316114,49.8448974 43.6050655,52.0183515 43.6050655,54.6994429 L43.6050655,66.1748987" stroke-width="2.5"></path><polyline stroke-width="2.5" stroke-linecap="round" points="25.0206305 23.1349198 25.0206305 67.1531886 51.9509852 67.1531886 51.9509852 23.4766618"></polyline><polygon fill="#000000" points="25.1861158 23.248317 38.1133798 13.138363 51.345144 23.248317 51.345144 67.0040101 43.6904589 67.0040101 43.6904589 52.7527515 38.2656299 49.5397961 38.2656299 40.2951883 42.9154031 39.0242969 46.9100912 34.2745028 46.9100912 28.9409695 43.6904589 25.1551986 39.1525039 24.1232432 34.0384702 25.1551986 31.5843758 27.8789737"></polygon><polygon fill="#000000" points="25.2106942 66.7754654 25.2106942 23.3647807 31.5044957 27.7434506 30.5333038 31.5599446 31.5044957 35.3685872 34.197889 38.5515022 38.5882226 40.6536462 38.5882226 50.0273713 34.9502641 51.604731 33.8118019 54.9695952 33.8118019 67.1126043"></polygon></g></g></g></svg>