<?xml version="1.0" encoding="UTF-8" standalone="no"?>
<svg
   xmlns:dc="http://purl.org/dc/elements/1.1/"
   xmlns:cc="http://creativecommons.org/ns#"
   xmlns:rdf="http://www.w3.org/1999/02/22-rdf-syntax-ns#"
   xmlns:svg="http://www.w3.org/2000/svg"
   xmlns="http://www.w3.org/2000/svg"
   xmlns:xlink="http://www.w3.org/1999/xlink"
   xmlns:sodipodi="http://sodipodi.sourceforge.net/DTD/sodipodi-0.dtd"
   xmlns:inkscape="http://www.inkscape.org/namespaces/inkscape"
   version="1.1"
   id="Layer_1"
   x="0px"
   y="0px"
   width="21.65625"
   height="21.65625"
   viewBox="-9.5 -18.497 21.65625 21.656249"
   enable-background="new -9.5 -18.497 82 100"
   xml:space="preserve"
   inkscape:version="0.48.4 r9939"
   sodipodi:docname="sugarizer_thinclient.svg"><metadata
   id="metadata25"><rdf:RDF><cc:Work
       rdf:about=""><dc:format>image/svg+xml</dc:format><dc:type
         rdf:resource="http://purl.org/dc/dcmitype/StillImage" /><dc:title /></cc:Work></rdf:RDF></metadata><defs
   id="defs23" /><sodipodi:namedview
   pagecolor="#ffffff"
   bordercolor="#666666"
   borderopacity="1"
   objecttolerance="10"
   gridtolerance="10"
   guidetolerance="10"
   inkscape:pageopacity="0"
   inkscape:pageshadow="2"
   inkscape:window-width="1600"
   inkscape:window-height="837"
   id="namedview21"
   showgrid="false"
   inkscape:zoom="6.675088"
   inkscape:cx="35.729567"
   inkscape:cy="-6.8785848"
   inkscape:window-x="-8"
   inkscape:window-y="-8"
   inkscape:window-maximized="1"
   inkscape:current-layer="Layer_1"
   fit-margin-top="0"
   fit-margin-left="0"
   fit-margin-right="0"
   fit-margin-bottom="0" />
<g
   id="g3"
   transform="translate(122.88657,39.66537)">
	<g
   id="g5">
		<defs
   id="defs7">
			<rect
   id="SVGID_1_"
   y="0.0060000001"
   width="64"
   height="64"
   x="0" />
		</defs>
		<clipPath
   id="SVGID_2_">
			<use
   xlink:href="#SVGID_1_"
   overflow="visible"
   id="use11"
   style="overflow:visible"
   x="0"
   y="0"
   width="82"
   height="100" />
		</clipPath>
		<polygon
   clip-path="url(#SVGID_2_)"
   points="-9.76,31.247 -16.664,31.247 -21.206,38.503 -13.5,38.503 -19,53.784 -3.664,34.428 -11.682,34.404 "
   id="polygon13"
   style="fill:#000000" />
	</g>
</g>

<g
   id="activity-browse"
   display="block"
   transform="matrix(0.5,0,0,0.5,-12.359375,-21.418876)"
   style="display:block;fill:none">
	<circle
   id="circle3071"
   r="19.903"
   display="inline"
   cy="27.5"
   cx="27.375"
   sodipodi:cx="27.375"
   sodipodi:cy="27.5"
   sodipodi:rx="19.903"
   sodipodi:ry="19.903"
   style="fill:none;stroke:#010101;stroke-width:3.50000000000000000;display:inline"
   d="m 47.278,27.5 c 0,10.992123 -8.910877,19.903 -19.903,19.903 -10.992123,0 -19.9029999,-8.910877 -19.9029999,-19.903 0,-10.992123 8.9108769,-19.9029999 19.9029999,-19.9029999 10.992123,0 19.903,8.9108769 19.903,19.9029999 z" />
	<g
   id="g3073"
   display="inline"
   style="display:inline;fill:none">
		<path
   id="path3075"
   d="m 27.376,7.598 c 0,0 -11.205,8.394 -11.205,19.976 0,11.583 11.205,19.829 11.205,19.829"
   inkscape:connector-curvature="0"
   style="fill:none;stroke:#010101;stroke-width:3.50000000000000000" />
		<path
   id="path3077"
   d="m 27.376,7.598 c 0,0 11.066,9.141 11.066,19.976 0,10.839 -11.066,19.829 -11.066,19.829"
   inkscape:connector-curvature="0"
   style="fill:none;stroke:#010101;stroke-width:3.50000000000000000" />
		<line
   id="line3079"
   y2="47.402"
   y1="7.598"
   x2="27.375999"
   x1="27.375999"
   style="fill:none;stroke:#010101;stroke-width:3.50000000000000000" />
		<line
   id="line3081"
   y2="47.402"
   y1="7.598"
   x2="27.375999"
   x1="27.375999"
   style="fill:none;stroke:#010101;stroke-width:3.50000000000000000" />
		<line
   id="line3083"
   y2="47.402"
   y1="7.598"
   x2="27.375999"
   x1="27.375999"
   style="fill:none;stroke:#010101;stroke-width:3.50000000000000000" />
		<line
   id="line3085"
   y2="27.5"
   y1="27.5"
   x2="47.278"
   x1="7.4720001"
   style="fill:none;stroke:#010101;stroke-width:3.50000000000000000" />
	</g>
</g></svg>