<?xml version="1.0" encoding="UTF-8" standalone="no"?>
<svg
   xmlns:dc="http://purl.org/dc/elements/1.1/"
   xmlns:cc="http://creativecommons.org/ns#"
   xmlns:rdf="http://www.w3.org/1999/02/22-rdf-syntax-ns#"
   xmlns:svg="http://www.w3.org/2000/svg"
   xmlns="http://www.w3.org/2000/svg"
   xmlns:xlink="http://www.w3.org/1999/xlink"
   xmlns:sodipodi="http://sodipodi.sourceforge.net/DTD/sodipodi-0.dtd"
   xmlns:inkscape="http://www.inkscape.org/namespaces/inkscape"
   version="1.1"
   id="Layer_1"
   x="0px"
   y="0px"
   width="82.000031"
   height="100"
   viewBox="-9.5 -18.497 82.000029 99.999998"
   enable-background="new -9.5 -18.497 82 100"
   xml:space="preserve"
   inkscape:version="0.48.4 r9939"
   sodipodi:docname="sugarizer_server.svg"><metadata
   id="metadata25"><rdf:RDF><cc:Work
       rdf:about=""><dc:format>image/svg+xml</dc:format><dc:type
         rdf:resource="http://purl.org/dc/dcmitype/StillImage" /></cc:Work></rdf:RDF></metadata><defs
   id="defs23" /><sodipodi:namedview
   pagecolor="#ffffff"
   bordercolor="#666666"
   borderopacity="1"
   objecttolerance="10"
   gridtolerance="10"
   guidetolerance="10"
   inkscape:pageopacity="0"
   inkscape:pageshadow="2"
   inkscape:window-width="1280"
   inkscape:window-height="961"
   id="namedview21"
   showgrid="false"
   inkscape:zoom="1.668772"
   inkscape:cx="-15.144744"
   inkscape:cy="8.3894064"
   inkscape:window-x="-8"
   inkscape:window-y="-8"
   inkscape:window-maximized="1"
   inkscape:current-layer="Layer_1"
   fit-margin-top="0"
   fit-margin-left="0"
   fit-margin-right="0"
   fit-margin-bottom="0" />
<g
   id="g3"
   transform="translate(-89.28722,62.321275)">
	<g
   id="g5">
		<defs
   id="defs7">
			<rect
   id="SVGID_1_"
   y="0.0060000001"
   width="64"
   height="64"
   x="0" />
		</defs>
		<clipPath
   id="SVGID_2_">
			<use
   xlink:href="#SVGID_1_"
   overflow="visible"
   id="use11"
   style="overflow:visible"
   x="0"
   y="0"
   width="82"
   height="100" />
		</clipPath>
		<polygon
   clip-path="url(#SVGID_2_)"
   points="-9.76,31.247 -16.664,31.247 -21.206,38.503 -13.5,38.503 -19,53.784 -3.664,34.428 -11.682,34.404 "
   id="polygon13"
   style="fill:#000000" />
	</g>
</g>
<g
   id="g15"
   transform="translate(0,-1.0243552e-6)">
	<path
   d="M 71.396,-15.29 C 70.345,-14.881 46.205,-3.401 46.205,-3.401 44.073,-2.39 42.5,0.455 42.5,2.812 v 73.604 c 0,1.433 0.466,2.288 1.562,2.288 0.406,0 0.59,-0.114 1.063,-0.34 L 68.994,66.813 C 71.125,65.802 72.5,62.957 72.5,60.599 v -73.602 c 0,-1.432 0.021,-2.723 -1.104,-2.287 z"
   id="path17"
   inkscape:connector-curvature="0"
   style="fill:#000000" />
	<path
   d="m 68.2,-16.517 c 2.474,-1.176 2.205,-1.98 -0.537,-1.98 H 29.334 c -2.74,0 -7.015,0.784 -9.502,1.934 L -5.146,-5.01 C -7.631,-3.859 -9.5,-0.755 -9.5,1.984 v 74.389 c 0,2.74 1.911,5.13 4.651,5.13 h 39.24 c 2.74,0 5.108,-2.39 5.108,-5.13 V 1.984 c 0,-2.739 1.962,-5.865 4.437,-7.041 L 68.2,-16.517 z m -41.7,46.02 h -26 v -3 h 26 v 3 z m 0,-7 h -26 v -3 h 26 v 3 z m 0,-7 h -26 v -3 h 26 v 3 z"
   id="path19"
   inkscape:connector-curvature="0"
   style="fill:#000000" />
</g>
<g
   id="g6359"
   transform="matrix(0.08999982,0,0,0.09,-7.44718,22.838345)"
   style="fill:#ff2b34;fill-opacity:1;stroke:#005fe4;stroke-opacity:1"><path
     transform="matrix(0.969697,0,0,0.969697,-90.879133,125.06999)"
     d="m 382.60403,134.2677 c 0,28.28848 -22.93234,51.22083 -51.22082,51.22083 -28.28848,0 -51.22083,-22.93235 -51.22083,-51.22083 0,-28.28848 22.93235,-51.220825 51.22083,-51.220825 28.28848,0 51.22082,22.932345 51.22082,51.220825 z"
     sodipodi:ry="51.220825"
     sodipodi:rx="51.220825"
     sodipodi:cy="134.2677"
     sodipodi:cx="331.38321"
     id="path2307"
     style="fill:#ff2b34;fill-opacity:1;stroke:#005fe4;stroke-width:20.62502098;stroke-linecap:round;stroke-linejoin:round;stroke-miterlimit:4;stroke-opacity:1;stroke-dasharray:none;stroke-dashoffset:0"
     sodipodi:type="arc" /><path
     inkscape:connector-curvature="0"
     sodipodi:nodetypes="ccccccccccccc"
     id="path5343"
     d="m 290.55846,302.47333 -58.81513,59.20058 -59.39461,-59.40024 c -25.19828,-24.48771 -62.7038,13.33148 -38.1941,37.98719 l 60.04451,58.9817 -59.73639,59.42563 c -24.83976,24.97559 12.91592,63.26505 37.66786,37.75282 l 59.95799,-59.28294 58.75912,59.21065 c 24.50656,25.09065 62.43116,-13.00322 37.87956,-37.85772 l -59.24184,-59.02842 58.87574,-59.14782 c 25.1689,-25.18348 -13.0489,-62.75154 -37.80271,-37.84143 z"
     style="fill:#ff2b34;fill-opacity:1;stroke:#005fe4;stroke-width:20.00002098;stroke-linecap:round;stroke-linejoin:miter;stroke-miterlimit:4;stroke-opacity:1;stroke-dasharray:none;stroke-dashoffset:0" /></g></svg>